<svg version="1.1"
	 id="svg1910" xmlns:inkscape="http://www.inkscape.org/namespaces/inkscape" xmlns:sodipodi="http://sodipodi.sourceforge.net/DTD/sodipodi-0.dtd" xmlns:svg="http://www.w3.org/2000/svg"
	 xmlns="http://www.w3.org/2000/svg" xmlns:xlink="http://www.w3.org/1999/xlink" x="0px" y="0px" viewBox="0 0 300 76"
	 style="enable-background:new 0 0 300 76;" xml:space="preserve">
<style type="text/css">
	.st0{fill:#143858;}
</style>
<sodipodi:namedview  bordercolor="#666666" borderopacity="1.0" id="namedview1912" inkscape:current-layer="layer1" inkscape:cx="165.95943" inkscape:cy="9.2057621" inkscape:document-units="mm" inkscape:pagecheckerboard="0" inkscape:pageopacity="0.0" inkscape:pageshadow="2" inkscape:window-height="1011" inkscape:window-maximized="1" inkscape:window-width="1920" inkscape:window-x="0" inkscape:window-y="0" inkscape:zoom="1.9552971" pagecolor="#ffffff" showgrid="false">
	</sodipodi:namedview>
<path id="path120" class="st0" d="M199,53.8c0,3-1.8,5.4-5.3,7.2c-3.5,1.8-8.1,2.8-13.9,2.8c-7.9,0-13.9-1.9-18.1-5.6
	c-4.2-3.7-6.3-10.2-6.3-19.4c0-9.1,1.8-15.7,5.4-19.8c3.3-3.7,9.3-5.5,18.1-5.5c2.6,0,5.8,0.2,9.7,0.5c1.9,0.1,3.5,0.2,4.5,0.2
	c1.6,0,3-0.2,4.2-0.7V29l-0.4-0.7c-2.2-3.7-4.3-6.4-6.2-7.9c-3.2-2.5-7-3.7-11.5-3.7c-4.8,0-8.1,1.6-10.1,4.7
	c-2,3.1-2.9,8.5-2.9,16.1c0,6.9,1.1,11.9,3.2,15c2.4,3.6,6.6,5.4,12.5,5.4c3.1,0,6.1-0.4,9.3-1.3c3.1-0.8,5.6-1.9,7.5-3.3L199,53.8z
	"/>
<path id="path124" class="st0" d="M179,13.9c-8.7,0-14.7,1.8-17.9,5.4c-3.5,4-5.3,10.6-5.3,19.6c0,9.1,2.1,15.5,6.1,19.1
	c4.1,3.6,10.1,5.5,17.8,5.5c5.6,0,10.3-0.9,13.7-2.7c3.3-1.7,5-4,5.1-6.8c-1.8,1.2-4.2,2.2-7,3c-3.1,0.9-6.3,1.3-9.3,1.3
	c-6.1,0-10.4-1.9-12.8-5.5c-2.2-3.2-3.3-8.3-3.3-15.2c0-7.7,1-13.1,3-16.3c2-3.2,5.5-4.8,10.4-4.8c4.6,0,8.5,1.3,11.7,3.8
	c1.9,1.5,3.9,4,6,7.5V14c-1.1,0.4-2.4,0.5-3.9,0.5c-1.1,0-2.6-0.1-4.6-0.2C184.8,14,181.6,13.9,179,13.9 M179.8,64.1
	c-7.9,0-14.1-1.9-18.3-5.7c-4.2-3.8-6.4-10.3-6.4-19.6c0-9.1,1.8-15.9,5.5-20c3.3-3.7,9.5-5.6,18.4-5.6c2.5,0,5.8,0.2,9.7,0.5
	c1.9,0.1,3.4,0.2,4.5,0.2c1.6,0,3-0.2,4.1-0.7c0.1,0,0.2,0,0.3,0c0.1,0.1,0.1,0.2,0.1,0.3V29c0,0.1-0.1,0.3-0.3,0.3
	c-0.1,0-0.3,0-0.4-0.2l-0.4-0.7c-2.2-3.7-4.2-6.3-6.1-7.8c-3.1-2.4-6.9-3.6-11.3-3.6c-4.6,0-7.9,1.5-9.8,4.5c-1.9,3-2.9,8.4-2.9,16
	c0,6.8,1.1,11.8,3.2,14.8c2.3,3.5,6.5,5.2,12.3,5.2c3,0,6.1-0.4,9.2-1.3c3.1-0.8,5.5-1.9,7.4-3.2c0.1-0.1,0.2-0.1,0.3,0
	c0.1,0.1,0.2,0.2,0.2,0.3v0.4c0,3.1-1.8,5.6-5.4,7.5C190.3,63.2,185.6,64.1,179.8,64.1"/>
<path id="path128" class="st0" d="M247.2,49L245,62.8h-39.9c1-0.8,1.8-1.4,2.2-1.9c0.5-0.7,0.8-1.5,1-2.3c0.3-1.5,0.4-3.5,0.4-6.2
	V25c0-2.7-0.1-4.7-0.4-6.2c-0.3-1.5-1.3-2.9-3.1-4.2h17.5c-1.1,0.8-1.8,1.4-2.1,1.9c-0.7,0.9-1.1,2.6-1.3,5.2
	c-0.1,1.9-0.1,3-0.1,3.3v26.6c0,3.1,0.3,5.1,0.9,6.1c0.9,1.6,3.1,2.4,6.8,2.4c4.5,0,8.3-0.8,11.4-2.5C241.3,55.8,244.3,53,247.2,49"
	/>
<path id="path132" class="st0" d="M206.1,62.5h38.6l1.9-12.3c-2.7,3.4-5.5,6-8.4,7.5c-3.2,1.7-7.1,2.6-11.6,2.6
	c-3.7,0-6.1-0.9-7.1-2.5c-0.6-1-0.9-3.1-0.9-6.2V25c0-0.2,0-1.3,0.1-3.3c0.2-2.7,0.6-4.5,1.4-5.4c0.2-0.4,0.7-0.9,1.4-1.4h-15.6
	c1.4,1.2,2.3,2.5,2.5,3.8c0.3,1.5,0.4,3.6,0.4,6.3v27.5c0,2.6-0.1,4.7-0.4,6.2c-0.2,0.9-0.5,1.7-1,2.5
	C207.3,61.5,206.8,62,206.1,62.5 M245,63.2h-39.9c-0.1,0-0.3-0.1-0.3-0.2c0-0.1,0-0.3,0.1-0.3c1-0.7,1.7-1.3,2.1-1.8
	c0.5-0.6,0.8-1.4,0.9-2.2c0.3-1.5,0.4-3.5,0.4-6.1V25c0-2.6-0.1-4.7-0.4-6.2c-0.2-1.4-1.3-2.7-3-4c-0.1-0.1-0.2-0.2-0.1-0.3
	c0-0.1,0.2-0.2,0.3-0.2h17.5c0.1,0,0.3,0.1,0.3,0.2c0,0.1,0,0.3-0.1,0.3c-1,0.8-1.7,1.4-2,1.9c-0.7,0.9-1.1,2.6-1.2,5.1
	c-0.1,2-0.1,3-0.1,3.2v26.6c0,3,0.3,5,0.8,5.9c0.8,1.5,3,2.2,6.5,2.2c4.4,0,8.2-0.8,11.3-2.5c3.1-1.7,6.1-4.5,8.9-8.4
	c0.1-0.1,0.3-0.2,0.4-0.1c0.1,0.1,0.2,0.2,0.2,0.3l-2.2,13.8C245.3,63,245.2,63.2,245,63.2"/>
<path id="path136" class="st0" d="M298.8,14.5c-1.1,0.8-1.8,1.4-2.1,1.9c-0.5,0.5-0.8,1.3-1,2.3c-0.3,1.8-0.4,3.9-0.4,6.2v37.9h-8.5
	l-27.4-38.2v27.8c0,2.3,0.2,4.4,0.4,6.2c0.3,1.5,1.3,2.9,3.1,4.2h-11.3c1-0.8,1.8-1.4,2.2-1.9c0.5-0.7,0.8-1.5,1-2.3
	c0.3-1.5,0.4-3.5,0.4-6.2V25c0-2.7-0.1-4.7-0.4-6.2c-0.3-1.5-1.3-2.9-3.1-4.2h13.2L291.1,51V25c0-2.7-0.1-4.7-0.4-6.2
	c-0.2-1.5-1.3-2.9-3.1-4.2H298.8z"/>
<path id="path140" class="st0" d="M287,62.5h8V25c0-2.4,0.2-4.5,0.4-6.3c0.2-1,0.5-1.8,1.1-2.4c0.2-0.4,0.7-0.8,1.4-1.4h-9.4
	c1.4,1.2,2.3,2.5,2.5,3.8c0.2,1.5,0.4,3.6,0.4,6.3v26c0,0.1-0.1,0.3-0.2,0.3c-0.1,0-0.3,0-0.4-0.1l-26.1-36.3h-12.1
	c1.4,1.2,2.3,2.5,2.5,3.8c0.3,1.5,0.4,3.6,0.4,6.3v27.5c0,2.6-0.1,4.7-0.4,6.2c-0.2,0.9-0.5,1.7-1,2.5c-0.3,0.4-0.8,0.9-1.5,1.4h9.4
	c-1.4-1.2-2.3-2.5-2.5-3.8c-0.3-1.8-0.5-3.9-0.5-6.2V24.7c0-0.1,0.1-0.3,0.2-0.3c0.1,0,0.3,0,0.4,0.1L287,62.5z M295.3,63.2h-8.5
	c-0.1,0-0.2-0.1-0.3-0.1l-26.8-37.3v26.8c0,2.3,0.2,4.4,0.4,6.1c0.3,1.4,1.3,2.8,3,4c0.1,0.1,0.2,0.2,0.1,0.4c0,0.1-0.2,0.2-0.3,0.2
	h-11.3c-0.1,0-0.3-0.1-0.3-0.2c0-0.1,0-0.3,0.1-0.3c1-0.7,1.7-1.3,2.1-1.8c0.5-0.6,0.8-1.4,0.9-2.2c0.3-1.5,0.4-3.5,0.4-6.1V25
	c0-2.6-0.1-4.7-0.4-6.2c-0.2-1.4-1.3-2.7-3-4c-0.1-0.1-0.2-0.2-0.1-0.3c0-0.1,0.2-0.2,0.3-0.2h13.2c0.1,0,0.2,0.1,0.3,0.1l25.6,35.6
	V25c0-2.6-0.1-4.7-0.4-6.2c-0.2-1.4-1.2-2.7-3-4c-0.1-0.1-0.2-0.2-0.1-0.3c0-0.1,0.2-0.2,0.3-0.2h11.3c0.1,0,0.3,0.1,0.3,0.2
	c0,0.1,0,0.3-0.1,0.4c-1.1,0.8-1.8,1.4-2,1.8c-0.5,0.5-0.8,1.3-1,2.2c-0.3,1.8-0.4,3.8-0.4,6.2v37.9C295.6,63,295.5,63.2,295.3,63.2
	"/>
<path id="path188" class="st0" d="M144.1,68.9h-2.2V7.4h2.2V68.9z"/>
<path id="path192" class="st0" d="M107.6,60.7c0.4-2.3,0.3-6.5-0.1-13.3l17.8-0.1C121.9,52.6,115.7,57.2,107.6,60.7 M55.4,67l3.1-5
	c0.1-0.2,0.3-0.3,0.5-0.3l21.3,0.1c0.2,0,0.7,0.1,0.8,0.3l2.9,4.9c-4.6,0.6-9.3,0.9-14.2,0.9C64.9,67.9,60,67.6,55.4,67 M14.8,47.9
	l17.3-0.1c-0.3,6.3-0.3,10.2,0.1,13C24.3,57.4,18.3,52.9,14.8,47.9 M22.6,19.9c0.2,0,0.3,0,0.4,0c0.2,0,0.3,0,0.1,0.1
	c-2.3,1.4-4.5,8.4-4.6,8.7l-0.4,1.1L19,29c0.1-0.1,6-5.3,10.5-6.7c-1.7,0.7-3.5,1.8-4.5,2.7c-0.9,0.8-1.5,2.2-1.9,3.7
	c-0.2,0.1-0.5,0.3-0.9,0.5l-11,7.7C11.6,30.6,15.7,24.7,22.6,19.9 M106.1,13.9c-0.7,0.8-1.2,1.9-1.5,2.6l0,0.1l0-0.1
	c-0.6-1.3-1.3-2.8-2.6-3.6c-0.5-0.3-1.3-0.5-2.3-0.5c-2.9,0-6.7,1.4-6.9,1.5l-1.5,0.6l1.6,0.1c0.1,0,5.5,0.2,8.2,2.6
	c-1.6-0.9-3.6-1.5-4.6-1.5c-2.4,0-8.3,4.3-8.5,4.5L86.6,21l1.5-0.4c0.1,0,5.1-1.3,9.3-1.3c0.5,0,1,0,1.5,0.1c-0.1,0-0.2,0-0.4,0
	c-2.4,0-4.7,0.4-5.6,1c-1,0.6-2.1,2.2-2.9,3.9c-0.2,0.4-0.4,0.8-0.6,1.2l0,0l0,0c-0.4-0.8-0.8-1.7-1.6-2.3c-0.3-0.2-0.8-0.3-1.4-0.3
	c-1.8,0-4.2,0.9-4.3,0.9l-0.9,0.3l1,0c0,0,3.4,0.1,5.1,1.6c-1-0.5-2.2-0.9-2.9-0.9c-1.2,0-3.9,1.8-4.9,2.5c-4.3-3.8-5.6-5.2-7.8-7.1
	c-2.3-2.1-4.3-1.7-5.4-0.8c-0.4,0.3-3.5,3.3-7.4,7.1C57.6,25.9,56,25,55.2,25c-0.6,0-1.8,0.4-2.9,0.9c1.7-1.5,5-1.6,5.1-1.6l1,0
	l-0.9-0.3c-0.1,0-2.5-0.9-4.3-0.9c-0.6,0-1.1,0.1-1.4,0.3c-0.8,0.5-1.3,1.4-1.6,2.3l0,0l0,0c-0.2-0.4-0.4-0.8-0.6-1.2
	c-0.8-1.6-1.9-3.2-2.9-3.9c-0.9-0.6-3.2-1-5.6-1c-0.1,0-0.2,0-0.4,0c0.5,0,1-0.1,1.5-0.1c4.2,0,9.2,1.2,9.3,1.3l1.5,0.4l-1.3-0.9
	c-0.2-0.2-6.2-4.5-8.5-4.5c-1,0-3,0.6-4.6,1.5c2.7-2.4,8.1-2.6,8.2-2.6l1.6-0.1l-1.5-0.6c-0.2-0.1-4-1.5-6.9-1.5
	c-1,0-1.8,0.2-2.3,0.5c-1.3,0.8-2,2.3-2.6,3.6l0,0.1l0-0.1c-0.4-0.8-0.8-1.7-1.4-2.5c10-4.1,22.6-6.6,36.4-6.6
	C83.5,7.4,96.1,9.9,106.1,13.9 M128.3,35.9l-10.7-7.5c-0.4-0.3-0.9-0.3-1.5-0.3c-0.4-1.2-1-2.3-1.7-3c-1-0.9-2.8-2-4.5-2.7
	c4.5,1.4,10.5,6.6,10.5,6.7l0.9,0.8c-1.3-5.3-3.1-8.3-4.9-10c0.1,0,0.4,0.1,0.7,0.1C123.6,24.5,127.6,29.9,128.3,35.9 M106.8,35.6
	L106.8,35.6l2.5-1.7c0.6,2.3,0.8,4.2,0.8,4.2l0.7-2.9c0.2-1,0.4-1.8,0.6-2.6l2.7-1.8c1.5,2.1,2.6,3.9,2.6,3.9l0.6,1v-1.1
	c0-0.2,0-2.2-0.4-4.4c0.2,0.1,0.5,0.2,0.7,0.3l5.4,3.6l5.7,3.8c0,2.7-0.8,5.3-2.1,7.8c-2.2,0.2-5.4,0.1-8.6,0c-3-0.1-6.5-0.2-10.3,0
	C107.3,42.8,107,39.5,106.8,35.6 M106,26.1c1.3,1.8,2.2,4.3,2.9,6.5l-2.2,1.6C106.5,31.8,106.3,29.1,106,26.1 M94.6,43.8l7.4-5
	c0,1.6-0.1,3.4-0.1,5.2c0,0.7,0,1.4,0,2.1c-0.3,0-0.6,0.1-0.9,0.1c-2.3,0.3-5.5,0.4-9.4,0.5c0-2.9-0.2-5.5-0.3-7.8c0,0,0,0,0,0
	c0.3,0.3,0.7,0.5,1,0.8c1.3,1.1,2.4,1.9,2.9,2.4c0,0,0.1,0.1,0.1,0.1c0.1,0.1,0.2,0.2,0.3,0.2c0,0,0,0,0,0c0,0,0.1,0,0.1,0.1h0
	l-2.5,1.9C93.6,44.2,94.3,44,94.6,43.8 M93.7,33.1c0.1-0.1,0.2-0.3,0.3-0.4c1.6,1.9,2.9,4.1,2.9,4.1l0.4,0.6v-0.7
	c0-0.2,0-4.4-1.7-5.9c0,0-0.1-0.1-0.2-0.1c1.6-2.2,3.7-4.8,5.7-6.2c-0.9,0.8-1.9,1.9-2.8,3.3c-1,1.5-0.6,3.5,0.3,7.4l0.7,2.9
	c0,0,0.8-7,3.5-11.3c-0.3,2.5-0.5,6.3-0.6,10.9l-6,4.4c-1.8-1.5-3.4-2.9-4.9-4.2c-0.2-2.6-0.5-4.7-0.7-6c1.7,2.6,2.2,7.1,2.2,7.1
	l0.4-1.8C93.6,35.2,93.9,34,93.7,33.1 M82.9,35.7c0,0-0.1-0.1-0.1-0.1c0,0,0.1-0.1,0.1-0.1c1.1,1.2,2,2.8,2,2.8l0.2,0.4v-0.4
	c0-0.1,0-2.6-1-3.5c-0.1-0.1-0.3-0.3-0.5-0.4c0,0,0,0,0.1-0.1c0.5,0.3,1.1,0.7,1.5,1c0.1,0.5,0.2,1.1,0.4,1.8l0.4,1.8
	c0,0,0.2-1.7,0.8-3.7c0.4,0.3,0.8,0.7,1.3,1c-0.1,1.8-0.1,3.7-0.1,4.6c0,0.9-0.1,3.4-0.1,5.9c-1.9,0-3.9,0-6,0c0-2.2,0-6.3-0.1-9.3
	l0.3-0.5c0.4,1.3,0.6,2.6,0.6,2.6l0.2-1.1C83.1,37,83.3,36.3,82.9,35.7 M59.6,60l2.1-3.4c0.1-0.2,0.3-0.3,0.5-0.3h14.9
	c0.2,0,0.4,0.1,0.5,0.3l1.8,3.2c0.1,0.2,0,0.3-0.2,0.3l-19.6,0.3C59.6,60.3,59.5,60.1,59.6,60 M65.7,49.7l0.9-1.6
	c0.1-0.2,0.3-0.3,0.5-0.3h5.1c0.2,0,0.4,0.1,0.5,0.3l0.6,1.5c0.1,0.2,0,0.3-0.2,0.3L65.9,50C65.7,50,65.6,49.9,65.7,49.7 M74.4,51.3
	c0.2,0,0.4,0.1,0.5,0.3l1.9,3c0.1,0.2,0,0.3-0.2,0.3l-13.3-0.4c-0.2,0-0.3-0.1-0.2-0.3l1.5-2.6c0.1-0.2,0.3-0.3,0.5-0.3L74.4,51.3z
	 M76.3,30.8c0,0,2,0.1,3,1c-0.6-0.3-1.3-0.5-1.7-0.5c-0.9,0-3,1.6-3.1,1.6L74,33.2l0.6-0.1c0,0,1.9-0.5,3.4-0.5c0.2,0,0.4,0,0.6,0
	c0,0-0.1,0-0.1,0c-0.9,0-1.7,0.1-2,0.4c-0.9,0.5-1.7,2.9-1.7,3l-0.1,0.4l0.3-0.3c0,0,2.2-1.9,3.9-2.4c-0.6,0.3-1.3,0.6-1.6,1
	c-1,0.9-1,3.4-1,3.5v0.4l0.2-0.4c0,0,1.6-2.7,3.1-3.7c-0.3,0.3-0.7,0.7-1,1.2c-0.4,0.5-0.2,1.3,0.1,2.7l0.2,1.1c0,0,0.3-2.5,1.3-4.1
	c-0.1,1.4-0.3,2.7-0.6,11.3c-2.9,0-5.9,0-9-0.1c-3.5,0-6.9-0.1-10.3-0.1c-0.3-8.8-0.5-10-0.6-11.5c1.2,1.5,1.5,4.4,1.5,4.4l0.2-1.1
	c0.3-1.4,0.5-2.2,0.1-2.7c-0.3-0.5-0.7-0.9-1-1.2c1.4,1,3,3.7,3.1,3.7l0.2,0.4v-0.4c0-0.1,0-2.6-1-3.5c-0.4-0.3-1-0.7-1.6-1
	c1.7,0.5,3.8,2.4,3.9,2.4l0.3,0.3L64.9,36c0-0.1-0.9-2.5-1.7-3c-0.3-0.2-1.2-0.4-2.1-0.4c0,0-0.1,0-0.1,0c0.2,0,0.4,0,0.6,0
	c1.5,0,3.4,0.5,3.4,0.5l0.6,0.1L65,32.9c-0.1-0.1-2.2-1.6-3.1-1.6c-0.4,0-1.1,0.2-1.7,0.5c1-0.9,3-1,3-1l0.6,0l-0.5-0.2
	c-0.1,0-1.5-0.5-2.5-0.5c-0.4,0-0.6,0.1-0.8,0.2c-0.2,0.1-0.4,0.3-0.6,0.6c-0.3-0.6-0.6-1.2-0.9-1.7c4.3-4,7.8-7.4,7.8-7.4
	c1.6-1.7,2.6-1.5,3.9-0.5h0c0,0,0,0,0,0c0,0,10.5,8.8,10.5,8.8c-0.1,0.2-0.3,0.5-0.4,0.7c-0.1-0.2-0.3-0.4-0.6-0.6
	c-0.2-0.1-0.5-0.2-0.9-0.2c-1.1,0-2.5,0.5-2.5,0.5l-0.5,0.2L76.3,30.8z M54.6,38.3c0,0,1-1.6,2-2.8c0,0,0.1,0.1,0.1,0.1
	c0,0-0.1,0.1-0.1,0.1c-0.4,0.5-0.2,1.3,0.1,2.7l0.2,1.1c0,0,0.1-1.3,0.6-2.6l0.3,0.4c-0.1,3,0,7,0,9.2c-2.1,0-4.2,0-6.1,0
	c0-3.3-0.1-7.4-0.2-11c0.3-0.3,0.7-0.6,1-1c0.7,2.2,1,4.3,1,4.3l0.4-1.8c0.2-0.7,0.3-1.3,0.4-1.8c0.4-0.3,1-0.7,1.5-1
	c0,0,0,0,0.1,0.1c-0.2,0.1-0.4,0.3-0.5,0.4c-1,0.9-1,3.4-1,3.5v0.4L54.6,38.3z M46.8,38.5c0.2-1.2,0.8-4.5,2.2-6.7
	c-0.1,1.2-0.3,2.8-0.4,4.9C48,37.3,47.4,37.9,46.8,38.5 M48.5,38.3c-0.1,2.4-0.3,5.3-0.3,8.4c-3.3,0.1-6.2,0.2-8.5,0.3l-2.2,0
	c-0.1-1.6-0.1-2.7-0.1-3c0-1.5-0.1-2.9-0.1-4.3l7.8,5.3c0.4,0.2,1.1,0.5,1.5,0.5L43,42.8C43.9,42.3,45.9,40.6,48.5,38.3 M42.7,36.8
	c0,0,1.3-2.2,2.9-4.1c0.1,0.1,0.2,0.3,0.3,0.4c-0.2,0.9,0,2,0.5,4l0.3,1.5c-2,1.9-3.5,3.4-4,4l-5.4-4c-0.2-5.6-0.6-10.1-1-12.7
	c3.3,4.1,4.2,12.2,4.2,12.2l0.7-2.9c0.3-1.2,0.5-2.1,0.6-3c0.7-0.5,1.5-1.1,2.4-1.7c0,0.1,0.1,0.1,0.1,0.2c-0.1,0-0.1,0.1-0.2,0.1
	c-1.6,1.5-1.7,5.7-1.7,5.9v0.7L42.7,36.8z M30.4,33.5C31,31,32,28.1,33.6,26c-0.3,3.4-0.5,6.5-0.7,9.3L30.4,33.5z M23,34.7
	c0,0,0.8-1.4,2.1-3.2c0.1,0,0.2,0.1,0.3,0.2l3.2,2.1c0.1,0.4,0.2,0.8,0.3,1.3l0.7,2.9c0,0,0.2-1.3,0.5-3.2l2.7,1.8
	c-0.3,4-0.5,7.5-0.6,10.4l-17.7,0.2c-1.7-2.6-2.7-5.4-3-8.3l5.5-3.7l5.4-3.6c0.1-0.1,0.2-0.1,0.3-0.2c-0.2,1.6-0.2,2.9-0.2,3v1.1
	L23,34.7z M55,61.7h1.4c0.2,0,0.3,0.1,0.2,0.3l-2.9,4.7c-6.1-0.9-11.7-2.3-16.8-4.1c0.8-3.2,0.7-10.6,0.6-14.9l10.6-0.1
	c0,1.6,0,3.5,0,5.3c0.5,1.4,3.5,1.2,3.6,0.4c0,0,0-2.5,0-5.7l6.1,0c0,0.4,0.3,0.9,1.5,0.8c0.6-0.1,0.7-0.5,0.8-0.8l4.6,0
	c0.1,0.1,0.1,0.4,0,0.5L64,49.3c-0.1,0.2-0.3,0.3-0.5,0.3H62c-0.2,0-0.4,0.1-0.6,0.3L60.7,51c-0.1,0.2,0,0.3,0.2,0.3h1.6
	c0.2,0,0.3,0.1,0.2,0.3l-1.5,2.6c-0.1,0.2-0.3,0.3-0.5,0.3h-0.7c-0.2,0-0.5,0.1-0.6,0.3l-0.9,1.1c-0.1,0.2-0.1,0.3,0.1,0.3h1
	c0.2,0,0.3,0.1,0.2,0.3l-1.9,3.2c-0.1,0.2-0.3,0.3-0.5,0.3h-1.3c-0.2,0-0.4,0.1-0.6,0.3l-0.8,1.1C54.7,61.6,54.8,61.7,55,61.7
	 M85.6,66.6L82.9,62c-0.1-0.2,0-0.3,0.2-0.3h1.4c0.2,0,0.3-0.1,0.1-0.3l-0.8-1.1c-0.1-0.2-0.4-0.3-0.6-0.3h-1.1
	c-0.2,0-0.4-0.1-0.5-0.3l-1.8-3.2c-0.1-0.2,0-0.3,0.2-0.3h0.9c0-0.5-0.7-1.4-0.7-1.4c-0.1-0.2-0.2-0.3-0.2-0.3h-0.4h-0.5
	c-1.4-0.8-2-2.9-2-2.9c-0.1-0.2,0-0.3,0.2-0.3l0.9,0c0.2,0,0.8-0.1,0.7-0.3l-0.7-1.1c-0.1-0.2-0.2-0.3-0.2-0.3h-0.4
	c0,0-1.4,0.1-1.8-0.3c0,0-1.1-1-0.5-1.7l4.3,0.2c0.1,0.4,0.3,0.8,0.8,0.8c0.9,0.1,1.7-0.1,1.7-0.6c0-0.1,0-0.1,0-0.2l6-0.2
	c-0.1,2.9-0.1,5.8,0,6c1,1.4,3.8,1,3.7-0.9c0.1-1.7,0.1-3.5,0.1-5.1l10.2-0.1c-0.2,9.5-0.5,13.9-0.1,15.6
	c-4.9,1.7-10.3,2.9-16.1,3.8C85.7,66.7,85.6,66.6,85.6,66.6 M69.9,5.3C36.4,5.3,9.2,19.6,9.2,37.7c0,18,27.2,32.3,60.6,32.3
	c33.5,0,60.6-14.3,60.6-32.3C130.5,19.6,103.3,5.3,69.9,5.3"/>
</svg>
